<?xml version="1.0" encoding="UTF-8"?>
<svg id="Layer_2" data-name="Layer 2" xmlns="http://www.w3.org/2000/svg" viewBox="0 0 800 800">
  <defs>
    <style>
      .cls-1 {
        fill: #fff;
      }

      .cls-2 {
        fill: #bdbdbd;
      }
    </style>
  </defs>
  <g id="Layer_1-2" data-name="Layer 1">
    <circle class="cls-2" cx="400" cy="400" r="400"/>
    <path class="cls-1" d="M56.27,604.7c48.69,81.58,125.61,144.35,217.27,174.87,20.01,3.66,27.31-8.69,27.31-19.3,0-4.39-.07-12.15-.17-22.54-.11-12.03-.26-27.57-.37-45.48-111.26,24.16-134.74-53.63-134.74-53.63-18.2-46.19-44.42-58.49-44.42-58.49-36.32-24.83,2.75-24.34,2.75-24.34,40.15,2.85,61.27,41.23,61.27,41.23,35.68,61.12,93.63,43.46,116.42,33.25,3.63-25.86,13.95-43.49,25.39-53.48-88.82-10.09-182.2-44.42-182.2-197.7,0-43.66,15.59-79.36,41.18-107.33-4.13-10.12-17.85-50.78,3.9-105.86,0,0,33.59-10.76,110.01,41.01,31.9-8.86,66.13-13.31,100.14-13.46,33.96,.15,68.19,4.59,100.14,13.46,76.37-51.76,109.89-41.01,109.89-41.01,21.83,55.08,8.1,95.74,3.98,105.86,25.64,27.97,41.13,63.67,41.13,107.33,0,153.67-93.53,187.48-182.65,197.38,14.37,12.35,27.16,36.76,27.16,74.09s-.22,66.89-.37,87.52c-.07,10.22-.13,17.85-.13,22.2,0,10.71,7.19,23.16,27.5,19.25,73.02-24.38,136.68-69.21,184.14-127.71-73.34,90.41-185.33,148.19-310.81,148.19-146.11,0-273.92-78.34-343.72-195.3Z"/>
  </g>
</svg>