<?xml version="1.0" encoding="UTF-8"?>
<svg id="Layer_2" data-name="Layer 2" xmlns="http://www.w3.org/2000/svg" viewBox="0 0 800 800">
  <defs>
    <style>
      .cls-1 {
        fill: #bdbdbd;
      }
    </style>
  </defs>
  <g id="Layer_1-2" data-name="Layer 1">
    <path class="cls-1" d="M174.02,245.24V799.93H0V245.24H174.02Zm-.06-160.36c.03,.88,.06,1.91,.06,2.97,0,22.72-9.09,43.17-23.61,57.48l-.06,.03c-15.58,15.11-36.41,24.36-59.3,24.36-1.4,0-2.83-.03-4.23-.09h-.74c-1.17,.06-2.54,.09-3.92,.09-22.41,0-42.75-9.28-57.87-24.39l.03,.03C9.92,130.56,1,109.87,1,86.97c0-.73,0-1.46,.03-2.21v.12c-.03-.64-.03-1.37-.03-2.09C1,59.67,10.26,38.86,25.03,24.27l.06-.03C40.64,9.22,61.42,0,84.19,0c1.31,0,2.6,.03,3.92,.09h-.17c1.23-.06,2.63-.09,4.09-.09,22.43,0,42.87,9.19,58.13,24.21l-.06-.06c14.72,15.08,23.86,36.19,23.86,59.58v1.15ZM799.94,482.08v317.85h-173.47V503.27c.16-2.7,.23-5.85,.23-9,0-30.68-8.03-59.33-22-83.78l.39,.72c-13.77-20.4-36.03-33.52-61.16-33.52-1.94,0-3.87,.07-5.81,.24h.26c-.87-.03-1.87-.07-2.87-.07-20,0-38.38,7.29-52.93,19.51l.19-.14c-14.61,12.56-26.06,28.62-33.29,47.07l-.26,.79c-3.74,12.15-5.87,26.12-5.87,40.64,0,1.64,.03,3.29,.1,4.93v309.32h-173.47c.71-148.88,1.06-269.6,1.06-362.15s-.17-147.78-.52-165.67l-.52-26.88h173.47v80.59h-1.06c6.9-11.81,14.03-22.05,21.87-31.63l-.26,.31c9.06-10.58,18.8-20.13,29.29-28.69l.52-.41c13.03-10.65,28.32-19,44.9-24.1l.97-.24c17.35-5.51,37.32-8.7,57.96-8.7h2.42c2.29-.1,4.97-.17,7.64-.17,54.22,0,103.06,24.44,137.28,63.54l.1,.14c36.6,42.36,54.9,104.4,54.9,186.11l-.06,.03Z"/>
  </g>
</svg>